PathFileType	4	(X/Y/Z)	 s07c0401.trc
DataRate	CameraRate	NumFrames	NumMarkers	Units	OrigDataRate	OrigDataStartFrame	OrigNumFrames
200	200	5	48	mm	200	501	2000
Frame#	Time	racr			lacr			c7			jug			rlel			rdr			llel			ldr			s2			lic			ric			lasi			rasi			rpsi			lpsi			rgt			lgt			rth1			rth2			rth3			rth4			rlfc			rmfc			rsh1			rsh2			rsh3			rsh4			rlmal			rcal			rtoe			rmt5			lth1			lth2			lth4			lth3			llfc			lmfc			lsh1			lsh2			lsh3			lsh4			llmal			lcal			ltoe			lmt5			SBIKE			LBIKE			RBIKE			
		X1	Y1	Z1	X2	Y2	Z2	X3	Y3	Z3	X4	Y4	Z4	X5	Y5	Z5	X6	Y6	Z6	X7	Y7	Z7	X8	Y8	Z8	X9	Y9	Z9	X10	Y10	Z10	X11	Y11	Z11	X12	Y12	Z12	X13	Y13	Z13	X14	Y14	Z14	X15	Y15	Z15	X16	Y16	Z16	X17	Y17	Z17	X18	Y18	Z18	X19	Y19	Z19	X20	Y20	Z20	X21	Y21	Z21	X22	Y22	Z22	X23	Y23	Z23	X24	Y24	Z24	X25	Y25	Z25	X26	Y26	Z26	X27	Y27	Z27	X28	Y28	Z28	X29	Y29	Z29	X30	Y30	Z30	X31	Y31	Z31	X32	Y32	Z32	X33	Y33	Z33	X34	Y34	Z34	X35	Y35	Z35	X36	Y36	Z36	X37	Y37	Z37	X38	Y38	Z38	X39	Y39	Z39	X40	Y40	Z40	X41	Y41	Z41	X42	Y42	Z42	X43	Y43	Z43	X44	Y44	Z44	X45	Y45	Z45	X46	Y46	Z46	X47	Y47	Z47	X48	Y48	Z48	
501	2.5050	629.473652	1480.751629	-125.823573	569.344062	1468.761550	-446.128968	569.842065	1547.848811	-281.546141	553.041767	1394.014965	-277.062535	521.920407	1168.860435	37.031710	699.483139	950.515764	-43.560627	469.631189	1132.984696	-513.654455	693.008228	948.108196	-422.672553	26.272635	1268.738739	-203.794874	166.914658	1332.451519	-355.553899	222.097048	1283.305501	-71.353571	202.126306	1253.142104	-339.727297	227.525754	1223.242817	-90.767696	65.959643	1299.257229	-151.508982	58.730727	1321.332184	-255.998613	141.160189	1144.641993	-37.268446	119.229334	1188.450721	-398.065721	200.968114	1001.341165	-34.702486	248.152492	927.591627	-45.494741	255.190088	842.039115	-44.863269	277.060607	938.668158	-64.833638	278.903510	702.463544	-74.017353	260.852184	691.688366	-176.005920	189.395934	590.379782	-47.152800	158.913404	509.032715	-64.782578	91.659580	452.279601	-62.669465	172.111654	503.274701	-103.182817	6.589294	340.730734	-66.669923	-68.315177	339.935128	-94.603588	168.457240	173.461460	-124.210499	87.380573	181.937461	-50.249516	210.278236	1106.599692	-407.452151	294.680925	1081.460183	-412.005207	314.297401	1111.347200	-403.381145	356.020215	1016.532534	-412.400401	491.317355	897.963964	-386.087132	484.907543	880.990515	-286.651368	404.859606	774.993706	-401.721206	369.156793	699.102262	-380.786534	297.758407	644.551138	-388.145077	372.024002	701.611972	-339.194576	205.009979	544.968219	-386.435629	128.455054	512.294654	-351.570796	412.425053	461.309566	-355.107488	328.799378	447.278778	-419.130290	-260.011089	978.584347	-230.394336	-76.285149	83.437171	-435.512642	-82.102412	79.539748	-37.995902	
502	2.5100	630.135965	1480.532989	-125.117657	571.584969	1468.694863	-445.327231	571.618143	1547.443448	-280.951059	554.117847	1393.652811	-276.579977	521.730682	1168.718258	36.983707	699.409302	950.429754	-43.152071	470.398985	1133.483394	-513.440862	693.145733	948.067529	-422.311283	26.823666	1270.322389	-204.220079	167.464632	1333.681306	-356.441217	222.798389	1284.839221	-72.257820	202.444844	1254.342484	-340.996027	228.358789	1224.860811	-91.917384	66.739942	1300.828400	-152.301212	59.163903	1322.853266	-256.715650	142.524589	1146.451303	-38.073214	118.338298	1189.447090	-398.503105	204.925491	1004.417965	-35.164543	252.994253	931.181685	-45.775187	261.955843	846.141858	-44.691361	282.208727	942.874351	-65.154964	285.899233	705.745663	-73.611499	269.427497	694.113778	-175.496221	194.170761	595.543028	-46.812364	161.894505	514.960332	-64.307506	93.165347	459.803268	-62.225575	174.810307	508.733587	-102.704253	5.510906	350.436456	-66.132574	-69.365877	352.274547	-94.505923	161.500879	177.874482	-124.232003	80.741426	189.056583	-50.113516	208.802999	1106.537697	-408.568796	292.874796	1080.408033	-413.481497	312.798772	1110.017693	-404.750194	353.448845	1014.807257	-413.866558	488.009211	895.109057	-387.874187	482.026660	877.913146	-287.522303	403.435398	770.546741	-403.326403	370.127411	693.940505	-382.431687	299.736747	637.092018	-388.620750	373.346199	695.931621	-340.762531	209.760290	535.150839	-386.629921	133.590178	501.687018	-352.260640	418.773972	454.351689	-355.086120	335.450986	439.072392	-419.203482	-260.002292	978.594080	-230.390154	-76.276109	83.452279	-435.518593	-82.115893	79.567251	-37.997380	
503	2.5150	630.553419	1480.446695	-124.264247	573.884946	1468.711470	-444.456953	573.301500	1547.134812	-280.292556	555.181390	1393.333315	-276.058239	521.613726	1168.598174	36.957737	699.355623	950.282886	-42.705806	471.249744	1133.994413	-513.264178	693.251713	948.001991	-421.825729	27.486216	1271.500516	-204.752603	167.935365	1334.658957	-357.332008	223.594528	1286.517133	-72.791727	201.287938	1255.236578	-341.227414	229.224484	1226.557121	-93.152679	67.383163	1302.188263	-153.036315	59.574322	1324.078910	-257.407236	144.178850	1148.079952	-38.842103	117.572036	1190.062866	-398.998207	209.234470	1007.330251	-35.728747	257.915458	934.754744	-46.019386	268.565049	850.180214	-44.313428	287.313329	947.182718	-65.373906	292.988688	709.205930	-73.064560	277.243248	697.401679	-175.207860	199.101567	600.734176	-46.601891	163.727887	520.915971	-64.493895	94.500568	467.070688	-62.271466	177.748904	514.274399	-102.393708	4.781418	360.208593	-65.653872	-70.245525	365.336682	-94.583719	154.811324	182.832135	-124.179436	74.564718	196.676747	-50.088479	207.242492	1105.967692	-409.639914	290.933931	1078.742409	-414.891695	311.274717	1108.159167	-406.492704	350.677895	1012.374416	-415.343793	484.434589	891.593817	-389.687010	479.139373	874.123670	-289.349312	401.767143	765.556340	-405.065649	376.514563	689.360176	-378.929360	301.556292	629.623937	-389.919721	374.453575	689.825634	-342.623830	214.684009	524.925846	-387.030875	138.822741	490.522281	-352.516265	424.628563	446.850674	-355.129436	341.654543	430.379344	-419.280986	-259.982934	978.598802	-230.343655	-76.274232	83.479103	-435.508034	-82.097910	79.552989	-37.999488	
504	2.5200	630.890340	1480.510863	-123.242228	576.221845	1468.682431	-443.228658	574.884884	1546.873189	-279.542409	556.314890	1393.149692	-275.392307	521.532949	1168.498790	36.970522	699.296211	950.194006	-42.385482	472.224276	1134.529828	-513.049038	693.375168	947.921438	-421.282596	28.109206	1272.509299	-205.217905	168.358460	1335.454320	-358.276705	224.284576	1287.639728	-73.170611	201.426247	1255.918890	-342.564458	230.206572	1228.176778	-94.438429	68.072123	1303.364217	-153.761095	60.029091	1325.021064	-258.147243	145.942164	1149.518913	-39.517513	116.843702	1190.187618	-399.476554	213.237361	1010.433601	-36.611184	262.871666	938.277296	-46.232132	275.016656	854.178568	-43.807364	292.379690	951.176104	-65.481379	300.143655	712.645255	-72.717180	284.985440	700.723596	-174.930856	204.256323	605.837466	-46.384194	168.327618	526.802770	-63.829887	96.523515	474.657461	-62.151719	180.695079	520.189549	-102.498943	4.631998	370.231622	-65.201605	-69.953127	377.393868	-94.638315	148.739089	188.348000	-124.175354	68.811967	204.724276	-50.040097	205.587765	1104.804710	-410.678986	288.872156	1076.394341	-416.347068	309.686599	1105.599174	-408.280685	347.883100	1008.955760	-416.759701	480.580916	887.318742	-391.430823	475.719850	869.960704	-290.877379	399.999049	759.835976	-406.944853	371.593143	681.118752	-385.609269	303.096649	621.463732	-391.100041	375.186995	683.106715	-344.637214	219.154757	514.367765	-387.581759	143.570715	479.229037	-352.939675	430.026068	438.532069	-355.360624	347.145279	419.876456	-418.061890	-259.978699	978.627428	-230.328744	-76.270869	83.482335	-435.510059	-82.093358	79.557872	-37.993179	
505	2.5250	631.138344	1480.676756	-122.058083	578.505725	1468.704923	-442.058760	576.430511	1546.698606	-278.707682	557.484889	1392.991165	-274.682188	521.508331	1168.421945	36.997260	699.199911	950.088131	-42.223704	473.221518	1135.189178	-512.894773	693.525748	947.838719	-420.620963	29.539528	1272.925605	-206.251177	168.695512	1335.960938	-359.291068	225.158287	1289.119858	-74.875634	201.447192	1256.238339	-343.782337	231.193384	1229.697293	-95.671651	68.640704	1304.126329	-154.464980	60.423694	1325.655357	-258.861852	147.941747	1150.827726	-40.194675	116.047877	1189.944073	-399.832916	216.725391	1013.246536	-37.529229	267.828452	941.724542	-46.414275	281.355253	857.989686	-43.270725	297.462492	955.166283	-65.343012	307.336784	716.143466	-72.458641	292.937499	704.155463	-175.211836	209.714675	610.932471	-46.323446	171.647307	533.366426	-63.562370	99.965860	482.666077	-61.005163	183.677567	525.656896	-102.752166	4.646649	380.172746	-65.116333	-69.514640	390.076015	-94.672728	143.008820	194.283029	-124.028253	63.692738	213.244017	-49.972204	203.870434	1103.154850	-411.620410	286.685602	1073.510446	-417.842391	307.982365	1102.481759	-410.169905	344.681183	1005.417124	-418.094386	476.420329	882.510282	-393.346634	472.355650	864.960674	-292.950686	398.133469	753.658002	-409.005797	370.828586	674.322509	-387.804600	304.522926	612.872691	-392.342794	376.498552	675.465343	-346.289655	223.232024	503.508919	-388.062219	148.041489	467.680663	-353.290259	435.019718	429.938762	-355.506179	352.290423	410.117588	-418.271227	-259.935758	978.622611	-230.266718	-76.281433	83.507371	-435.486307	-82.098130	79.554055	-37.992877	
